<mxfile host="app.diagrams.net" agent="Mozilla/5.0 (Windows NT 10.0; Win64; x64) AppleWebKit/537.36 (KHTML, like Gecko) Chrome/128.0.0.0 Safari/537.36 OPR/114.0.0.0" version="24.9.2">
  <diagram id="PKRWb5A7ruBY07yZ8ys0" name="PRO Timeline">
    <mxGraphModel dx="628" dy="392" grid="0" gridSize="10" guides="1" tooltips="1" connect="1" arrows="1" fold="1" page="1" pageScale="1" pageWidth="1169" pageHeight="827" math="0" shadow="0">
      <root>
        <mxCell id="0" />
        <mxCell id="1" parent="0" />
        <mxCell id="sa3Q6PPfzVvc455tmy0R-1" value="December" style="shape=partialRectangle;whiteSpace=wrap;html=1;bottom=1;right=1;left=1;top=0;fillColor=#dae8fc;routingCenterX=-0.5;shadow=0;dashed=0;labelBackgroundColor=default;strokeColor=#6c8ebf;strokeWidth=2;fontFamily=Helvetica;fontSize=12;labelPosition=center;verticalLabelPosition=bottom;align=center;verticalAlign=top;" parent="1" vertex="1">
          <mxGeometry x="249" y="301" width="138" height="8" as="geometry" />
        </mxCell>
        <mxCell id="sa3Q6PPfzVvc455tmy0R-2" value="January" style="shape=partialRectangle;whiteSpace=wrap;html=1;bottom=1;right=1;left=1;top=0;fillColor=#d5e8d4;routingCenterX=-0.5;shadow=0;dashed=0;labelBackgroundColor=default;strokeColor=#82b366;strokeWidth=2;fontFamily=Helvetica;fontSize=12;labelPosition=center;verticalLabelPosition=bottom;align=center;verticalAlign=top;" parent="1" vertex="1">
          <mxGeometry x="387" y="301" width="83" height="8" as="geometry" />
        </mxCell>
        <mxCell id="sa3Q6PPfzVvc455tmy0R-3" value="February" style="shape=partialRectangle;whiteSpace=wrap;html=1;bottom=1;right=1;left=1;top=0;fillColor=#ffe6cc;routingCenterX=-0.5;shadow=0;dashed=0;labelBackgroundColor=default;strokeColor=#d79b00;strokeWidth=2;fontFamily=Helvetica;fontSize=12;labelPosition=center;verticalLabelPosition=bottom;align=center;verticalAlign=top;" parent="1" vertex="1">
          <mxGeometry x="472" y="301" width="103" height="8" as="geometry" />
        </mxCell>
        <mxCell id="sa3Q6PPfzVvc455tmy0R-6" value="React Native&lt;br&gt;(Basic)" style="shape=partialRectangle;whiteSpace=wrap;html=1;bottom=0;right=0;fillColor=none;direction=south;labelPosition=center;verticalLabelPosition=top;align=center;verticalAlign=bottom;strokeColor=#6c8ebf;" parent="1" vertex="1">
          <mxGeometry x="184" y="229" width="108" height="79" as="geometry" />
        </mxCell>
        <mxCell id="sa3Q6PPfzVvc455tmy0R-7" value="Shifting current code to new server (on approval)" style="shape=partialRectangle;whiteSpace=wrap;html=1;bottom=0;right=0;fillColor=none;direction=south;labelPosition=center;verticalLabelPosition=top;align=center;verticalAlign=bottom;strokeColor=#82b366;flipH=0;" parent="1" vertex="1">
          <mxGeometry x="269" y="190" width="147" height="119" as="geometry" />
        </mxCell>
        <mxCell id="sa3Q6PPfzVvc455tmy0R-8" value="Apply for Server Sponsorship" style="shape=partialRectangle;whiteSpace=wrap;html=1;bottom=0;right=0;fillColor=none;direction=south;labelPosition=center;verticalLabelPosition=top;align=center;verticalAlign=bottom;strokeColor=#6c8ebf;flipH=1;" parent="1" vertex="1">
          <mxGeometry x="312" y="266" width="79" height="42" as="geometry" />
        </mxCell>
        <mxCell id="sa3Q6PPfzVvc455tmy0R-9" value="HLD and LLD of current code" style="shape=partialRectangle;whiteSpace=wrap;html=1;bottom=0;right=0;fillColor=none;direction=south;labelPosition=center;verticalLabelPosition=top;align=center;verticalAlign=bottom;strokeColor=#6c8ebf;flipH=0;" parent="1" vertex="1">
          <mxGeometry x="177" y="279" width="93" height="29" as="geometry" />
        </mxCell>
        <mxCell id="sa3Q6PPfzVvc455tmy0R-11" value="Native Test Applications" style="shape=partialRectangle;whiteSpace=wrap;html=1;bottom=0;right=0;fillColor=none;direction=south;labelPosition=center;verticalLabelPosition=top;align=center;verticalAlign=bottom;strokeColor=#82b366;flipH=1;" parent="1" vertex="1">
          <mxGeometry x="422" y="168" width="107" height="141" as="geometry" />
        </mxCell>
        <mxCell id="sa3Q6PPfzVvc455tmy0R-14" value="User feedback on current app to be analyzed" style="shape=partialRectangle;whiteSpace=wrap;html=1;bottom=0;right=0;fillColor=none;direction=south;labelPosition=center;verticalLabelPosition=top;align=center;verticalAlign=bottom;strokeColor=#d79b00;flipH=1;" parent="1" vertex="1">
          <mxGeometry x="543" y="123" width="143" height="185" as="geometry" />
        </mxCell>
        <mxCell id="sa3Q6PPfzVvc455tmy0R-15" value="Development starts on React Native based PRO" style="shape=partialRectangle;whiteSpace=wrap;html=1;bottom=0;right=0;fillColor=none;direction=south;labelPosition=center;verticalLabelPosition=top;align=center;verticalAlign=bottom;strokeColor=#d79b00;flipH=0;" parent="1" vertex="1">
          <mxGeometry x="447" y="259" width="84" height="49" as="geometry" />
        </mxCell>
        <mxCell id="sa3Q6PPfzVvc455tmy0R-16" value="Integrate tracking from various sources" style="shape=partialRectangle;whiteSpace=wrap;html=1;bottom=0;right=0;fillColor=none;direction=south;labelPosition=center;verticalLabelPosition=top;align=center;verticalAlign=bottom;strokeColor=#d79b00;flipH=1;" parent="1" vertex="1">
          <mxGeometry x="549" y="194" width="97" height="114" as="geometry" />
        </mxCell>
        <mxCell id="M2KYJsqDLCq6B0NrQ8lX-1" value="&lt;h1&gt;&lt;font style=&quot;font-size: 18px;&quot; face=&quot;Verdana&quot;&gt;Uponly PRO Timeline&lt;br&gt;(&lt;font color=&quot;#2172ff&quot;&gt;Dec &#39;24&lt;/font&gt; - &lt;font color=&quot;#ff6229&quot;&gt;Feb &#39;25&lt;/font&gt;)&lt;/font&gt;&lt;/h1&gt;" style="text;html=1;align=center;verticalAlign=middle;resizable=0;points=[];autosize=1;strokeColor=none;fillColor=none;" vertex="1" parent="1">
          <mxGeometry x="147" y="42" width="229" height="102" as="geometry" />
        </mxCell>
      </root>
    </mxGraphModel>
  </diagram>
</mxfile>
